<svg fill="none" height="47" viewBox="0 0 132 47" width="132" xmlns="http://www.w3.org/2000/svg" xmlns:xlink="http://www.w3.org/1999/xlink"><clipPath id="a"><path d="m.491089 0h131.03v47h-131.03z"/></clipPath><g clip-path="url(#a)" fill="#fff"><path d="m22.5902 32.1924v-.0757c1.5515-.1454 6.9464-.6982 6.9464-5.7077 0-3.3513-2.922-5.7077-6.8705-5.7077-2.298 0-4.6309.9367-5.5233 2.9382h.0875c.3383 0 .6649-.1513.8573-.4363.5366-.7913 2.088-1.9143 4.211-1.9143 3.1378 0 4.1352 2.3972 4.1352 5.1608 0 4.3463-2.6246 5.4169-6.6139 5.4169h-3.1029v.5876h3.1379c2.0296 0 7.4187 0 7.4187 6.7434 0 4.0902-1.4755 7.2263-5.984 7.2263-2.3154 0-3.9018-.8204-4.7009-1.6815-.2274-.2444-.5366-.3956-.869-.3956h-.1108c1.044 1.6058 3.1203 2.6647 5.7565 2.6647 4.3218 0 9.2327-2.5426 9.2327-7.6626 0-2.0015-.8049-6.5689-8.0079-7.1565z"/><path d="m4.07217 24.0586c0-7.4009 4.43261-7.4416 7.49463-7.4416v4.5615c1.4231 0 2.5779-1.152 2.5779-2.5717v-18.6068c-1.4231 0-2.5779 1.15202-2.5779 2.57168v13.45182h-2.60709c-8.468621.0757-8.468621 7.622-8.468621 8.2561 0 3.3456 1.638901 8.2562 8.871051 8.2562h4.77086v-.5935h-2.5721c-3.80266 0-7.48873 0-7.48873-7.8837z"/><path d="m38.9323 24.1807c-.0292-1.3207-.8924-2.6531-2.7529-2.6531h-1.878v5.4226h1.878c.8165 0 1.5106-.2676 2.0063-.768.4783-.4887.7524-1.1927.7524-1.9375 0-.0233 0-.0407-.0058-.064zm-2.7529 2.1528h-1.2423v-4.1892h1.2423c1.4348 0 2.0938 1.024 2.1172 2.0422.0116.6051-.1983 1.1695-.5833 1.5593-.3791.384-.9098.5877-1.5339.5877z"/><path d="m44.0529 21.5276v3.3455c0 1.4138-1.0615 2.1586-2.1114 2.1586-.5482 0-1.0673-.192-1.4464-.5411-.4316-.3957-.659-.9542-.659-1.6175v-3.3455h.6299v3.3455c0 .4829.1574.8844.4607 1.1636.2683.2502.6299.3841 1.0148.3841.7116 0 1.4815-.483 1.4815-1.5535v-3.3397z"/><path d="m48.7892 24.1631c.4082-.2269.6474-.6284.6474-1.1055 0-1.1345-.9857-1.536-1.8256-1.536h-2.2513v5.4226h2.2513c1.2715 0 2.0064-.5352 2.0064-1.472 0-.5702-.315-1.0589-.8282-1.3091zm-1.1782-2.0597c.5599 0 1.2073.2502 1.2073.9542 0 .6749-.6299.8146-1.1606.8146h-1.6622v-1.7688zm0 4.2299h-1.6155v-1.8386h1.6622c.3091 0 1.3123.0699 1.324.9775 0 .5702-.4608.8611-1.3707.8611z"/><path d="m53.0934 21.5276h-.5949l-2.4321 5.4284h.6941l.5657-1.2742h2.9512l.5716 1.2742h.694zm-1.5106 3.5433 1.2132-2.7462 1.2131 2.7462z"/><path d="m57.0652 21.5276h-.6299v5.4226h.6299z"/><path d="m66.1928 24.2098c-.0292-1.3207-.8924-2.6473-2.7587-2.6473h-1.8781v5.4226h1.8781c.8165 0 1.5105-.2676 2.0063-.768.4782-.4887.7524-1.1927.7524-1.9375 0-.0232 0-.0465 0-.0698zm-2.7587 2.1528h-1.2423v-4.1892h1.2423c1.4347 0 2.0938 1.024 2.1171 2.0422.0117.6051-.1983 1.1695-.5832 1.5593-.3733.384-.904.5877-1.5339.5877z"/><path d="m71.4592 26.3626v.6225h-3.9194v-5.4226h3.826v.6109h-3.1903v1.7804h3.0445v.5993h-3.0445v1.8095z"/><path d="m76.7846 25.4956c-.0116 1.4604-1.668 1.571-2.1755 1.571-.7873 0-1.7963-.3142-2.2396-1.1928l-.0525-.1047.5716-.2851.0525.1047c.2916.5761 1.0615.8786 1.668.8786.4608 0 1.5398-.0931 1.5398-.9775.0058-.64-.6357-.8087-1.6156-.9949-.9448-.1862-2.018-.3956-2.018-1.4487-.0058-.384.1167-.7099.3733-.9659.3616-.3665 1.009-.5876 1.7264-.5876.8223 0 1.4814.1571 2.0005.9367l.07.1047-.5366.3142-.0642-.0989c-.3499-.5585-.9156-.64-1.4756-.6516-.1458 0-1.4522.0291-1.4522.9367 0 .5411.5949.6924 1.4931.8611l.0583.0117c.9682.1803 2.0763.3898 2.0763 1.5883z"/><path d="m78.7617 21.5625h-.6299v5.4226h.6299z"/><path d="m84.9904 24.0352v2.1121l-.035.0349c-.5774.5818-1.2714.8727-2.0471.8727-1.9364 0-2.7996-1.3906-2.7996-2.7637-.0058-.8145.2625-1.5127.7699-2.0247s1.2131-.7797 2.0355-.7797c.7466 0 1.4523.2851 1.983.8146l.0817.0814-.3908.4306-.0875-.0873c-.4024-.3956-.9973-.6342-1.5864-.6342-.6357 0-1.1781.2037-1.5631.5935-.3966.4014-.6182.9658-.6124 1.6 0 .9949.5716 2.1586 2.1755 2.1586.5483 0 1.0673-.192 1.4639-.5353v-1.28h-1.8138v-.5877h2.4262z"/><path d="m90.6363 21.5625v5.4226h-.3324l-3.3303-4.0669v4.0669h-.6416v-5.4226h.35l3.3244 4.0728v-4.0728z"/><path d="m99.7703 24.2099c-.0292-1.3208-.8924-2.6531-2.7587-2.6531h-1.8781v5.4226h1.8781c.8165 0 1.5105-.2676 2.0063-.768.4782-.4888.7524-1.1928.7524-1.9375 0-.0175 0-.0407 0-.064zm-2.7587 2.1528h-1.2423v-4.1892h1.2423c1.4347 0 2.0938 1.024 2.1171 2.0422.0117.5993-.1983 1.1695-.5832 1.5593-.3791.384-.9099.5877-1.5339.5877z"/><path d="m101.724 21.5625h-.63v5.4226h.63z"/><path d="m107.521 25.4956c-.012 1.4604-1.668 1.571-2.175 1.571-.788 0-1.797-.3142-2.24-1.1928l-.053-.1047.572-.2851.053.1047c.291.5761 1.061.8786 1.668.8786.46 0 1.539-.0931 1.539-.9775.006-.64-.635-.8087-1.615-.9949-.945-.1862-2.018-.3956-2.018-1.4487-.006-.384.116-.7099.373-.9659.362-.3665 1.009-.5876 1.726-.5876.823 0 1.482.1571 2.001.9367l.07.1047-.537.3142-.064-.0989c-.35-.5585-.915-.64-1.475-.6516-.146 0-1.453.0291-1.453.9367 0 .5411.589.6924 1.493.8611l.059.0117c.968.1803 2.076.3898 2.076 1.5883z"/><path d="m112.432 21.5684v.5934h-1.884v4.8234h-.635v-4.8234h-1.884v-.5934z"/><path d="m116.095 24.9895c.443-.0466.81-.2095 1.085-.483.303-.3025.466-.7331.46-1.2102-.006-.832-.583-1.7338-1.825-1.7338h-2.409v5.4284h.642v-1.9665h1.248l1.796 1.9665h.852zm-2.047-2.8219h1.767c.344 0 .636.1105.84.32.204.2036.315.4946.309.7971-.006.512-.216 1.1229-1.196 1.1229h-1.726v-2.24z"/><path d="m119.921 21.5625h-.63v5.4226h.63z"/><path d="m125.712 25.7342.438.4131-.088.0872c-.525.5237-1.231.8146-1.977.8146-1.919 0-2.788-1.3789-2.794-2.7404-.011-.7971.269-1.5128.776-2.0306.502-.5062 1.201-.7738 2.018-.7738.752 0 1.452.2909 1.977.8145l.088.0931-.455.3957-.082-.0757c-.402-.4014-.951-.6283-1.534-.6283-.641 0-1.184.2036-1.569.5876-.391.3956-.606.96-.601 1.6058.012.9892.59 2.1528 2.17 2.1528.578 0 1.137-.2269 1.546-.6225z"/><path d="m131.521 21.5684v.5934h-1.878v4.8234h-.635v-4.8234h-1.884v-.5934z"/></g></svg>